<mxfile host="app.diagrams.net" modified="2022-03-16T15:01:38.313Z" agent="5.0 (Windows NT 10.0; Win64; x64) AppleWebKit/537.36 (KHTML, like Gecko) Chrome/99.0.4844.51 Safari/537.36" etag="HGtsKVYPqDzMTDdRuWRS" version="17.1.2" type="github">
  <diagram id="TCtYVHyoIR0I3dWgSIPn" name="Page-1">
    <mxGraphModel dx="1422" dy="786" grid="1" gridSize="16" guides="1" tooltips="1" connect="1" arrows="1" fold="1" page="1" pageScale="1" pageWidth="10000" pageHeight="10000" math="0" shadow="0">
      <root>
        <mxCell id="0" />
        <mxCell id="1" parent="0" />
        <mxCell id="5YusyuYlUqEuzJR2jFkQ-199" value="" style="shape=table;startSize=0;container=1;collapsible=0;childLayout=tableLayout;fontSize=20;" parent="1" vertex="1">
          <mxGeometry x="944" y="20" width="720" height="464" as="geometry" />
        </mxCell>
        <mxCell id="5YusyuYlUqEuzJR2jFkQ-200" value="" style="shape=tableRow;horizontal=0;startSize=0;swimlaneHead=0;swimlaneBody=0;top=0;left=0;bottom=0;right=0;collapsible=0;dropTarget=0;fillColor=none;points=[[0,0.5],[1,0.5]];portConstraint=eastwest;fontSize=20;" parent="5YusyuYlUqEuzJR2jFkQ-199" vertex="1">
          <mxGeometry width="720" height="38" as="geometry" />
        </mxCell>
        <mxCell id="5YusyuYlUqEuzJR2jFkQ-201" value="" style="shape=partialRectangle;html=1;whiteSpace=wrap;connectable=0;overflow=hidden;fillColor=none;top=0;left=0;bottom=0;right=0;pointerEvents=1;fontSize=20;" parent="5YusyuYlUqEuzJR2jFkQ-200" vertex="1">
          <mxGeometry width="60" height="38" as="geometry">
            <mxRectangle width="60" height="38" as="alternateBounds" />
          </mxGeometry>
        </mxCell>
        <mxCell id="5YusyuYlUqEuzJR2jFkQ-202" value="0" style="shape=partialRectangle;html=1;whiteSpace=wrap;connectable=0;overflow=hidden;fillColor=none;top=0;left=0;bottom=0;right=0;pointerEvents=1;fontSize=20;" parent="5YusyuYlUqEuzJR2jFkQ-200" vertex="1">
          <mxGeometry x="60" width="60" height="38" as="geometry">
            <mxRectangle width="60" height="38" as="alternateBounds" />
          </mxGeometry>
        </mxCell>
        <mxCell id="5YusyuYlUqEuzJR2jFkQ-203" value="1" style="shape=partialRectangle;html=1;whiteSpace=wrap;connectable=0;overflow=hidden;fillColor=none;top=0;left=0;bottom=0;right=0;pointerEvents=1;fontSize=20;" parent="5YusyuYlUqEuzJR2jFkQ-200" vertex="1">
          <mxGeometry x="120" width="60" height="38" as="geometry">
            <mxRectangle width="60" height="38" as="alternateBounds" />
          </mxGeometry>
        </mxCell>
        <mxCell id="5YusyuYlUqEuzJR2jFkQ-204" value="2" style="shape=partialRectangle;html=1;whiteSpace=wrap;connectable=0;overflow=hidden;fillColor=none;top=0;left=0;bottom=0;right=0;pointerEvents=1;fontSize=20;" parent="5YusyuYlUqEuzJR2jFkQ-200" vertex="1">
          <mxGeometry x="180" width="60" height="38" as="geometry">
            <mxRectangle width="60" height="38" as="alternateBounds" />
          </mxGeometry>
        </mxCell>
        <mxCell id="5YusyuYlUqEuzJR2jFkQ-205" value="3" style="shape=partialRectangle;html=1;whiteSpace=wrap;connectable=0;overflow=hidden;fillColor=none;top=0;left=0;bottom=0;right=0;pointerEvents=1;fontSize=20;" parent="5YusyuYlUqEuzJR2jFkQ-200" vertex="1">
          <mxGeometry x="240" width="60" height="38" as="geometry">
            <mxRectangle width="60" height="38" as="alternateBounds" />
          </mxGeometry>
        </mxCell>
        <mxCell id="5YusyuYlUqEuzJR2jFkQ-206" value="4" style="shape=partialRectangle;html=1;whiteSpace=wrap;connectable=0;overflow=hidden;fillColor=none;top=0;left=0;bottom=0;right=0;pointerEvents=1;fontSize=20;" parent="5YusyuYlUqEuzJR2jFkQ-200" vertex="1">
          <mxGeometry x="300" width="60" height="38" as="geometry">
            <mxRectangle width="60" height="38" as="alternateBounds" />
          </mxGeometry>
        </mxCell>
        <mxCell id="5YusyuYlUqEuzJR2jFkQ-207" value="5" style="shape=partialRectangle;html=1;whiteSpace=wrap;connectable=0;overflow=hidden;fillColor=none;top=0;left=0;bottom=0;right=0;pointerEvents=1;fontSize=20;" parent="5YusyuYlUqEuzJR2jFkQ-200" vertex="1">
          <mxGeometry x="360" width="60" height="38" as="geometry">
            <mxRectangle width="60" height="38" as="alternateBounds" />
          </mxGeometry>
        </mxCell>
        <mxCell id="5YusyuYlUqEuzJR2jFkQ-208" value="6" style="shape=partialRectangle;html=1;whiteSpace=wrap;connectable=0;overflow=hidden;fillColor=none;top=0;left=0;bottom=0;right=0;pointerEvents=1;fontSize=20;" parent="5YusyuYlUqEuzJR2jFkQ-200" vertex="1">
          <mxGeometry x="420" width="60" height="38" as="geometry">
            <mxRectangle width="60" height="38" as="alternateBounds" />
          </mxGeometry>
        </mxCell>
        <mxCell id="5YusyuYlUqEuzJR2jFkQ-209" value="7" style="shape=partialRectangle;html=1;whiteSpace=wrap;connectable=0;overflow=hidden;fillColor=none;top=0;left=0;bottom=0;right=0;pointerEvents=1;fontSize=20;" parent="5YusyuYlUqEuzJR2jFkQ-200" vertex="1">
          <mxGeometry x="480" width="60" height="38" as="geometry">
            <mxRectangle width="60" height="38" as="alternateBounds" />
          </mxGeometry>
        </mxCell>
        <mxCell id="5YusyuYlUqEuzJR2jFkQ-210" value="8" style="shape=partialRectangle;html=1;whiteSpace=wrap;connectable=0;overflow=hidden;fillColor=none;top=0;left=0;bottom=0;right=0;pointerEvents=1;fontSize=20;" parent="5YusyuYlUqEuzJR2jFkQ-200" vertex="1">
          <mxGeometry x="540" width="60" height="38" as="geometry">
            <mxRectangle width="60" height="38" as="alternateBounds" />
          </mxGeometry>
        </mxCell>
        <mxCell id="5YusyuYlUqEuzJR2jFkQ-211" value="9" style="shape=partialRectangle;html=1;whiteSpace=wrap;connectable=0;overflow=hidden;fillColor=none;top=0;left=0;bottom=0;right=0;pointerEvents=1;fontSize=20;" parent="5YusyuYlUqEuzJR2jFkQ-200" vertex="1">
          <mxGeometry x="600" width="60" height="38" as="geometry">
            <mxRectangle width="60" height="38" as="alternateBounds" />
          </mxGeometry>
        </mxCell>
        <mxCell id="5YusyuYlUqEuzJR2jFkQ-212" value="10" style="shape=partialRectangle;html=1;whiteSpace=wrap;connectable=0;overflow=hidden;fillColor=none;top=0;left=0;bottom=0;right=0;pointerEvents=1;fontSize=20;" parent="5YusyuYlUqEuzJR2jFkQ-200" vertex="1">
          <mxGeometry x="660" width="60" height="38" as="geometry">
            <mxRectangle width="60" height="38" as="alternateBounds" />
          </mxGeometry>
        </mxCell>
        <mxCell id="5YusyuYlUqEuzJR2jFkQ-213" value="" style="shape=tableRow;horizontal=0;startSize=0;swimlaneHead=0;swimlaneBody=0;top=0;left=0;bottom=0;right=0;collapsible=0;dropTarget=0;fillColor=none;points=[[0,0.5],[1,0.5]];portConstraint=eastwest;fontSize=20;" parent="5YusyuYlUqEuzJR2jFkQ-199" vertex="1">
          <mxGeometry y="38" width="720" height="40" as="geometry" />
        </mxCell>
        <mxCell id="5YusyuYlUqEuzJR2jFkQ-214" value="0" style="shape=partialRectangle;html=1;whiteSpace=wrap;connectable=0;overflow=hidden;fillColor=none;top=0;left=0;bottom=0;right=0;pointerEvents=1;fontSize=20;" parent="5YusyuYlUqEuzJR2jFkQ-213" vertex="1">
          <mxGeometry width="60" height="40" as="geometry">
            <mxRectangle width="60" height="40" as="alternateBounds" />
          </mxGeometry>
        </mxCell>
        <mxCell id="5YusyuYlUqEuzJR2jFkQ-215" value="" style="shape=partialRectangle;html=1;whiteSpace=wrap;connectable=0;overflow=hidden;fillColor=none;top=0;left=0;bottom=0;right=0;pointerEvents=1;fontSize=20;" parent="5YusyuYlUqEuzJR2jFkQ-213" vertex="1">
          <mxGeometry x="60" width="60" height="40" as="geometry">
            <mxRectangle width="60" height="40" as="alternateBounds" />
          </mxGeometry>
        </mxCell>
        <mxCell id="5YusyuYlUqEuzJR2jFkQ-216" value="" style="shape=partialRectangle;html=1;whiteSpace=wrap;connectable=0;overflow=hidden;fillColor=none;top=0;left=0;bottom=0;right=0;pointerEvents=1;fontSize=20;" parent="5YusyuYlUqEuzJR2jFkQ-213" vertex="1">
          <mxGeometry x="120" width="60" height="40" as="geometry">
            <mxRectangle width="60" height="40" as="alternateBounds" />
          </mxGeometry>
        </mxCell>
        <mxCell id="5YusyuYlUqEuzJR2jFkQ-217" value="" style="shape=partialRectangle;html=1;whiteSpace=wrap;connectable=0;overflow=hidden;fillColor=none;top=0;left=0;bottom=0;right=0;pointerEvents=1;fontSize=20;" parent="5YusyuYlUqEuzJR2jFkQ-213" vertex="1">
          <mxGeometry x="180" width="60" height="40" as="geometry">
            <mxRectangle width="60" height="40" as="alternateBounds" />
          </mxGeometry>
        </mxCell>
        <mxCell id="5YusyuYlUqEuzJR2jFkQ-218" value="" style="shape=partialRectangle;html=1;whiteSpace=wrap;connectable=0;overflow=hidden;fillColor=none;top=0;left=0;bottom=0;right=0;pointerEvents=1;fontSize=20;" parent="5YusyuYlUqEuzJR2jFkQ-213" vertex="1">
          <mxGeometry x="240" width="60" height="40" as="geometry">
            <mxRectangle width="60" height="40" as="alternateBounds" />
          </mxGeometry>
        </mxCell>
        <mxCell id="5YusyuYlUqEuzJR2jFkQ-219" value="" style="shape=partialRectangle;html=1;whiteSpace=wrap;connectable=0;overflow=hidden;fillColor=none;top=0;left=0;bottom=0;right=0;pointerEvents=1;fontSize=20;" parent="5YusyuYlUqEuzJR2jFkQ-213" vertex="1">
          <mxGeometry x="300" width="60" height="40" as="geometry">
            <mxRectangle width="60" height="40" as="alternateBounds" />
          </mxGeometry>
        </mxCell>
        <mxCell id="5YusyuYlUqEuzJR2jFkQ-220" value="" style="shape=partialRectangle;html=1;whiteSpace=wrap;connectable=0;overflow=hidden;fillColor=none;top=0;left=0;bottom=0;right=0;pointerEvents=1;fontSize=20;" parent="5YusyuYlUqEuzJR2jFkQ-213" vertex="1">
          <mxGeometry x="360" width="60" height="40" as="geometry">
            <mxRectangle width="60" height="40" as="alternateBounds" />
          </mxGeometry>
        </mxCell>
        <mxCell id="5YusyuYlUqEuzJR2jFkQ-221" value="" style="shape=partialRectangle;html=1;whiteSpace=wrap;connectable=0;overflow=hidden;fillColor=none;top=0;left=0;bottom=0;right=0;pointerEvents=1;fontSize=20;" parent="5YusyuYlUqEuzJR2jFkQ-213" vertex="1">
          <mxGeometry x="420" width="60" height="40" as="geometry">
            <mxRectangle width="60" height="40" as="alternateBounds" />
          </mxGeometry>
        </mxCell>
        <mxCell id="5YusyuYlUqEuzJR2jFkQ-222" value="" style="shape=partialRectangle;html=1;whiteSpace=wrap;connectable=0;overflow=hidden;fillColor=none;top=0;left=0;bottom=0;right=0;pointerEvents=1;fontSize=20;" parent="5YusyuYlUqEuzJR2jFkQ-213" vertex="1">
          <mxGeometry x="480" width="60" height="40" as="geometry">
            <mxRectangle width="60" height="40" as="alternateBounds" />
          </mxGeometry>
        </mxCell>
        <mxCell id="5YusyuYlUqEuzJR2jFkQ-223" value="" style="shape=partialRectangle;html=1;whiteSpace=wrap;connectable=0;overflow=hidden;fillColor=none;top=0;left=0;bottom=0;right=0;pointerEvents=1;fontSize=20;" parent="5YusyuYlUqEuzJR2jFkQ-213" vertex="1">
          <mxGeometry x="540" width="60" height="40" as="geometry">
            <mxRectangle width="60" height="40" as="alternateBounds" />
          </mxGeometry>
        </mxCell>
        <mxCell id="5YusyuYlUqEuzJR2jFkQ-224" value="" style="shape=partialRectangle;html=1;whiteSpace=wrap;connectable=0;overflow=hidden;fillColor=none;top=0;left=0;bottom=0;right=0;pointerEvents=1;fontSize=20;" parent="5YusyuYlUqEuzJR2jFkQ-213" vertex="1">
          <mxGeometry x="600" width="60" height="40" as="geometry">
            <mxRectangle width="60" height="40" as="alternateBounds" />
          </mxGeometry>
        </mxCell>
        <mxCell id="5YusyuYlUqEuzJR2jFkQ-225" value="" style="shape=partialRectangle;html=1;whiteSpace=wrap;connectable=0;overflow=hidden;fillColor=none;top=0;left=0;bottom=0;right=0;pointerEvents=1;fontSize=20;" parent="5YusyuYlUqEuzJR2jFkQ-213" vertex="1">
          <mxGeometry x="660" width="60" height="40" as="geometry">
            <mxRectangle width="60" height="40" as="alternateBounds" />
          </mxGeometry>
        </mxCell>
        <mxCell id="5YusyuYlUqEuzJR2jFkQ-226" value="" style="shape=tableRow;horizontal=0;startSize=0;swimlaneHead=0;swimlaneBody=0;top=0;left=0;bottom=0;right=0;collapsible=0;dropTarget=0;fillColor=none;points=[[0,0.5],[1,0.5]];portConstraint=eastwest;fontSize=20;" parent="5YusyuYlUqEuzJR2jFkQ-199" vertex="1">
          <mxGeometry y="78" width="720" height="38" as="geometry" />
        </mxCell>
        <mxCell id="5YusyuYlUqEuzJR2jFkQ-227" value="1" style="shape=partialRectangle;html=1;whiteSpace=wrap;connectable=0;overflow=hidden;fillColor=none;top=0;left=0;bottom=0;right=0;pointerEvents=1;fontSize=20;" parent="5YusyuYlUqEuzJR2jFkQ-226" vertex="1">
          <mxGeometry width="60" height="38" as="geometry">
            <mxRectangle width="60" height="38" as="alternateBounds" />
          </mxGeometry>
        </mxCell>
        <mxCell id="5YusyuYlUqEuzJR2jFkQ-228" value="" style="shape=partialRectangle;html=1;whiteSpace=wrap;connectable=0;overflow=hidden;fillColor=none;top=0;left=0;bottom=0;right=0;pointerEvents=1;fontSize=20;" parent="5YusyuYlUqEuzJR2jFkQ-226" vertex="1">
          <mxGeometry x="60" width="60" height="38" as="geometry">
            <mxRectangle width="60" height="38" as="alternateBounds" />
          </mxGeometry>
        </mxCell>
        <mxCell id="5YusyuYlUqEuzJR2jFkQ-229" value="1" style="shape=partialRectangle;html=1;whiteSpace=wrap;connectable=0;overflow=hidden;fillColor=none;top=0;left=0;bottom=0;right=0;pointerEvents=1;fontSize=20;" parent="5YusyuYlUqEuzJR2jFkQ-226" vertex="1">
          <mxGeometry x="120" width="60" height="38" as="geometry">
            <mxRectangle width="60" height="38" as="alternateBounds" />
          </mxGeometry>
        </mxCell>
        <mxCell id="5YusyuYlUqEuzJR2jFkQ-230" value="" style="shape=partialRectangle;html=1;whiteSpace=wrap;connectable=0;overflow=hidden;fillColor=none;top=0;left=0;bottom=0;right=0;pointerEvents=1;fontSize=20;" parent="5YusyuYlUqEuzJR2jFkQ-226" vertex="1">
          <mxGeometry x="180" width="60" height="38" as="geometry">
            <mxRectangle width="60" height="38" as="alternateBounds" />
          </mxGeometry>
        </mxCell>
        <mxCell id="5YusyuYlUqEuzJR2jFkQ-231" value="" style="shape=partialRectangle;html=1;whiteSpace=wrap;connectable=0;overflow=hidden;fillColor=none;top=0;left=0;bottom=0;right=0;pointerEvents=1;fontSize=20;" parent="5YusyuYlUqEuzJR2jFkQ-226" vertex="1">
          <mxGeometry x="240" width="60" height="38" as="geometry">
            <mxRectangle width="60" height="38" as="alternateBounds" />
          </mxGeometry>
        </mxCell>
        <mxCell id="5YusyuYlUqEuzJR2jFkQ-232" value="" style="shape=partialRectangle;html=1;whiteSpace=wrap;connectable=0;overflow=hidden;fillColor=none;top=0;left=0;bottom=0;right=0;pointerEvents=1;fontSize=20;" parent="5YusyuYlUqEuzJR2jFkQ-226" vertex="1">
          <mxGeometry x="300" width="60" height="38" as="geometry">
            <mxRectangle width="60" height="38" as="alternateBounds" />
          </mxGeometry>
        </mxCell>
        <mxCell id="5YusyuYlUqEuzJR2jFkQ-233" value="" style="shape=partialRectangle;html=1;whiteSpace=wrap;connectable=0;overflow=hidden;fillColor=none;top=0;left=0;bottom=0;right=0;pointerEvents=1;fontSize=20;" parent="5YusyuYlUqEuzJR2jFkQ-226" vertex="1">
          <mxGeometry x="360" width="60" height="38" as="geometry">
            <mxRectangle width="60" height="38" as="alternateBounds" />
          </mxGeometry>
        </mxCell>
        <mxCell id="5YusyuYlUqEuzJR2jFkQ-234" value="" style="shape=partialRectangle;html=1;whiteSpace=wrap;connectable=0;overflow=hidden;fillColor=none;top=0;left=0;bottom=0;right=0;pointerEvents=1;fontSize=20;" parent="5YusyuYlUqEuzJR2jFkQ-226" vertex="1">
          <mxGeometry x="420" width="60" height="38" as="geometry">
            <mxRectangle width="60" height="38" as="alternateBounds" />
          </mxGeometry>
        </mxCell>
        <mxCell id="5YusyuYlUqEuzJR2jFkQ-235" value="" style="shape=partialRectangle;html=1;whiteSpace=wrap;connectable=0;overflow=hidden;fillColor=none;top=0;left=0;bottom=0;right=0;pointerEvents=1;fontSize=20;" parent="5YusyuYlUqEuzJR2jFkQ-226" vertex="1">
          <mxGeometry x="480" width="60" height="38" as="geometry">
            <mxRectangle width="60" height="38" as="alternateBounds" />
          </mxGeometry>
        </mxCell>
        <mxCell id="5YusyuYlUqEuzJR2jFkQ-236" value="" style="shape=partialRectangle;html=1;whiteSpace=wrap;connectable=0;overflow=hidden;fillColor=none;top=0;left=0;bottom=0;right=0;pointerEvents=1;fontSize=20;" parent="5YusyuYlUqEuzJR2jFkQ-226" vertex="1">
          <mxGeometry x="540" width="60" height="38" as="geometry">
            <mxRectangle width="60" height="38" as="alternateBounds" />
          </mxGeometry>
        </mxCell>
        <mxCell id="5YusyuYlUqEuzJR2jFkQ-237" value="" style="shape=partialRectangle;html=1;whiteSpace=wrap;connectable=0;overflow=hidden;fillColor=none;top=0;left=0;bottom=0;right=0;pointerEvents=1;fontSize=20;" parent="5YusyuYlUqEuzJR2jFkQ-226" vertex="1">
          <mxGeometry x="600" width="60" height="38" as="geometry">
            <mxRectangle width="60" height="38" as="alternateBounds" />
          </mxGeometry>
        </mxCell>
        <mxCell id="5YusyuYlUqEuzJR2jFkQ-238" value="" style="shape=partialRectangle;html=1;whiteSpace=wrap;connectable=0;overflow=hidden;fillColor=none;top=0;left=0;bottom=0;right=0;pointerEvents=1;fontSize=20;" parent="5YusyuYlUqEuzJR2jFkQ-226" vertex="1">
          <mxGeometry x="660" width="60" height="38" as="geometry">
            <mxRectangle width="60" height="38" as="alternateBounds" />
          </mxGeometry>
        </mxCell>
        <mxCell id="5YusyuYlUqEuzJR2jFkQ-239" value="" style="shape=tableRow;horizontal=0;startSize=0;swimlaneHead=0;swimlaneBody=0;top=0;left=0;bottom=0;right=0;collapsible=0;dropTarget=0;fillColor=none;points=[[0,0.5],[1,0.5]];portConstraint=eastwest;fontSize=20;" parent="5YusyuYlUqEuzJR2jFkQ-199" vertex="1">
          <mxGeometry y="116" width="720" height="38" as="geometry" />
        </mxCell>
        <mxCell id="5YusyuYlUqEuzJR2jFkQ-240" value="2" style="shape=partialRectangle;html=1;whiteSpace=wrap;connectable=0;overflow=hidden;fillColor=none;top=0;left=0;bottom=0;right=0;pointerEvents=1;fontSize=20;" parent="5YusyuYlUqEuzJR2jFkQ-239" vertex="1">
          <mxGeometry width="60" height="38" as="geometry">
            <mxRectangle width="60" height="38" as="alternateBounds" />
          </mxGeometry>
        </mxCell>
        <mxCell id="5YusyuYlUqEuzJR2jFkQ-241" value="" style="shape=partialRectangle;html=1;whiteSpace=wrap;connectable=0;overflow=hidden;fillColor=none;top=0;left=0;bottom=0;right=0;pointerEvents=1;fontSize=20;" parent="5YusyuYlUqEuzJR2jFkQ-239" vertex="1">
          <mxGeometry x="60" width="60" height="38" as="geometry">
            <mxRectangle width="60" height="38" as="alternateBounds" />
          </mxGeometry>
        </mxCell>
        <mxCell id="5YusyuYlUqEuzJR2jFkQ-242" value="4" style="shape=partialRectangle;html=1;whiteSpace=wrap;connectable=0;overflow=hidden;fillColor=none;top=0;left=0;bottom=0;right=0;pointerEvents=1;fontSize=20;" parent="5YusyuYlUqEuzJR2jFkQ-239" vertex="1">
          <mxGeometry x="120" width="60" height="38" as="geometry">
            <mxRectangle width="60" height="38" as="alternateBounds" />
          </mxGeometry>
        </mxCell>
        <mxCell id="5YusyuYlUqEuzJR2jFkQ-243" value="" style="shape=partialRectangle;html=1;whiteSpace=wrap;connectable=0;overflow=hidden;fillColor=none;top=0;left=0;bottom=0;right=0;pointerEvents=1;fontSize=20;" parent="5YusyuYlUqEuzJR2jFkQ-239" vertex="1">
          <mxGeometry x="180" width="60" height="38" as="geometry">
            <mxRectangle width="60" height="38" as="alternateBounds" />
          </mxGeometry>
        </mxCell>
        <mxCell id="5YusyuYlUqEuzJR2jFkQ-244" value="" style="shape=partialRectangle;html=1;whiteSpace=wrap;connectable=0;overflow=hidden;fillColor=none;top=0;left=0;bottom=0;right=0;pointerEvents=1;fontSize=20;" parent="5YusyuYlUqEuzJR2jFkQ-239" vertex="1">
          <mxGeometry x="240" width="60" height="38" as="geometry">
            <mxRectangle width="60" height="38" as="alternateBounds" />
          </mxGeometry>
        </mxCell>
        <mxCell id="5YusyuYlUqEuzJR2jFkQ-245" value="2" style="shape=partialRectangle;html=1;whiteSpace=wrap;connectable=0;overflow=hidden;fillColor=none;top=0;left=0;bottom=0;right=0;pointerEvents=1;fontSize=20;" parent="5YusyuYlUqEuzJR2jFkQ-239" vertex="1">
          <mxGeometry x="300" width="60" height="38" as="geometry">
            <mxRectangle width="60" height="38" as="alternateBounds" />
          </mxGeometry>
        </mxCell>
        <mxCell id="5YusyuYlUqEuzJR2jFkQ-246" value="" style="shape=partialRectangle;html=1;whiteSpace=wrap;connectable=0;overflow=hidden;fillColor=none;top=0;left=0;bottom=0;right=0;pointerEvents=1;fontSize=20;" parent="5YusyuYlUqEuzJR2jFkQ-239" vertex="1">
          <mxGeometry x="360" width="60" height="38" as="geometry">
            <mxRectangle width="60" height="38" as="alternateBounds" />
          </mxGeometry>
        </mxCell>
        <mxCell id="5YusyuYlUqEuzJR2jFkQ-247" value="" style="shape=partialRectangle;html=1;whiteSpace=wrap;connectable=0;overflow=hidden;fillColor=none;top=0;left=0;bottom=0;right=0;pointerEvents=1;fontSize=20;" parent="5YusyuYlUqEuzJR2jFkQ-239" vertex="1">
          <mxGeometry x="420" width="60" height="38" as="geometry">
            <mxRectangle width="60" height="38" as="alternateBounds" />
          </mxGeometry>
        </mxCell>
        <mxCell id="5YusyuYlUqEuzJR2jFkQ-248" value="" style="shape=partialRectangle;html=1;whiteSpace=wrap;connectable=0;overflow=hidden;fillColor=none;top=0;left=0;bottom=0;right=0;pointerEvents=1;fontSize=20;" parent="5YusyuYlUqEuzJR2jFkQ-239" vertex="1">
          <mxGeometry x="480" width="60" height="38" as="geometry">
            <mxRectangle width="60" height="38" as="alternateBounds" />
          </mxGeometry>
        </mxCell>
        <mxCell id="5YusyuYlUqEuzJR2jFkQ-249" value="" style="shape=partialRectangle;html=1;whiteSpace=wrap;connectable=0;overflow=hidden;fillColor=none;top=0;left=0;bottom=0;right=0;pointerEvents=1;fontSize=20;" parent="5YusyuYlUqEuzJR2jFkQ-239" vertex="1">
          <mxGeometry x="540" width="60" height="38" as="geometry">
            <mxRectangle width="60" height="38" as="alternateBounds" />
          </mxGeometry>
        </mxCell>
        <mxCell id="5YusyuYlUqEuzJR2jFkQ-250" value="" style="shape=partialRectangle;html=1;whiteSpace=wrap;connectable=0;overflow=hidden;fillColor=none;top=0;left=0;bottom=0;right=0;pointerEvents=1;fontSize=20;" parent="5YusyuYlUqEuzJR2jFkQ-239" vertex="1">
          <mxGeometry x="600" width="60" height="38" as="geometry">
            <mxRectangle width="60" height="38" as="alternateBounds" />
          </mxGeometry>
        </mxCell>
        <mxCell id="5YusyuYlUqEuzJR2jFkQ-251" value="" style="shape=partialRectangle;html=1;whiteSpace=wrap;connectable=0;overflow=hidden;fillColor=none;top=0;left=0;bottom=0;right=0;pointerEvents=1;fontSize=20;" parent="5YusyuYlUqEuzJR2jFkQ-239" vertex="1">
          <mxGeometry x="660" width="60" height="38" as="geometry">
            <mxRectangle width="60" height="38" as="alternateBounds" />
          </mxGeometry>
        </mxCell>
        <mxCell id="5YusyuYlUqEuzJR2jFkQ-252" value="" style="shape=tableRow;horizontal=0;startSize=0;swimlaneHead=0;swimlaneBody=0;top=0;left=0;bottom=0;right=0;collapsible=0;dropTarget=0;fillColor=none;points=[[0,0.5],[1,0.5]];portConstraint=eastwest;fontSize=20;" parent="5YusyuYlUqEuzJR2jFkQ-199" vertex="1">
          <mxGeometry y="154" width="720" height="40" as="geometry" />
        </mxCell>
        <mxCell id="5YusyuYlUqEuzJR2jFkQ-253" value="3" style="shape=partialRectangle;html=1;whiteSpace=wrap;connectable=0;overflow=hidden;fillColor=none;top=0;left=0;bottom=0;right=0;pointerEvents=1;fontSize=20;" parent="5YusyuYlUqEuzJR2jFkQ-252" vertex="1">
          <mxGeometry width="60" height="40" as="geometry">
            <mxRectangle width="60" height="40" as="alternateBounds" />
          </mxGeometry>
        </mxCell>
        <mxCell id="5YusyuYlUqEuzJR2jFkQ-254" value="" style="shape=partialRectangle;html=1;whiteSpace=wrap;connectable=0;overflow=hidden;fillColor=none;top=0;left=0;bottom=0;right=0;pointerEvents=1;fontSize=20;" parent="5YusyuYlUqEuzJR2jFkQ-252" vertex="1">
          <mxGeometry x="60" width="60" height="40" as="geometry">
            <mxRectangle width="60" height="40" as="alternateBounds" />
          </mxGeometry>
        </mxCell>
        <mxCell id="5YusyuYlUqEuzJR2jFkQ-255" value="" style="shape=partialRectangle;html=1;whiteSpace=wrap;connectable=0;overflow=hidden;fillColor=none;top=0;left=0;bottom=0;right=0;pointerEvents=1;fontSize=20;" parent="5YusyuYlUqEuzJR2jFkQ-252" vertex="1">
          <mxGeometry x="120" width="60" height="40" as="geometry">
            <mxRectangle width="60" height="40" as="alternateBounds" />
          </mxGeometry>
        </mxCell>
        <mxCell id="5YusyuYlUqEuzJR2jFkQ-256" value="" style="shape=partialRectangle;html=1;whiteSpace=wrap;connectable=0;overflow=hidden;fillColor=none;top=0;left=0;bottom=0;right=0;pointerEvents=1;fontSize=20;" parent="5YusyuYlUqEuzJR2jFkQ-252" vertex="1">
          <mxGeometry x="180" width="60" height="40" as="geometry">
            <mxRectangle width="60" height="40" as="alternateBounds" />
          </mxGeometry>
        </mxCell>
        <mxCell id="5YusyuYlUqEuzJR2jFkQ-257" value="3" style="shape=partialRectangle;html=1;whiteSpace=wrap;connectable=0;overflow=hidden;fillColor=none;top=0;left=0;bottom=0;right=0;pointerEvents=1;fontSize=20;" parent="5YusyuYlUqEuzJR2jFkQ-252" vertex="1">
          <mxGeometry x="240" width="60" height="40" as="geometry">
            <mxRectangle width="60" height="40" as="alternateBounds" />
          </mxGeometry>
        </mxCell>
        <mxCell id="5YusyuYlUqEuzJR2jFkQ-258" value="1" style="shape=partialRectangle;html=1;whiteSpace=wrap;connectable=0;overflow=hidden;fillColor=none;top=0;left=0;bottom=0;right=0;pointerEvents=1;fontSize=20;" parent="5YusyuYlUqEuzJR2jFkQ-252" vertex="1">
          <mxGeometry x="300" width="60" height="40" as="geometry">
            <mxRectangle width="60" height="40" as="alternateBounds" />
          </mxGeometry>
        </mxCell>
        <mxCell id="5YusyuYlUqEuzJR2jFkQ-259" value="" style="shape=partialRectangle;html=1;whiteSpace=wrap;connectable=0;overflow=hidden;fillColor=none;top=0;left=0;bottom=0;right=0;pointerEvents=1;fontSize=20;" parent="5YusyuYlUqEuzJR2jFkQ-252" vertex="1">
          <mxGeometry x="360" width="60" height="40" as="geometry">
            <mxRectangle width="60" height="40" as="alternateBounds" />
          </mxGeometry>
        </mxCell>
        <mxCell id="5YusyuYlUqEuzJR2jFkQ-260" value="2" style="shape=partialRectangle;html=1;whiteSpace=wrap;connectable=0;overflow=hidden;fillColor=none;top=0;left=0;bottom=0;right=0;pointerEvents=1;fontSize=20;" parent="5YusyuYlUqEuzJR2jFkQ-252" vertex="1">
          <mxGeometry x="420" width="60" height="40" as="geometry">
            <mxRectangle width="60" height="40" as="alternateBounds" />
          </mxGeometry>
        </mxCell>
        <mxCell id="5YusyuYlUqEuzJR2jFkQ-261" value="" style="shape=partialRectangle;html=1;whiteSpace=wrap;connectable=0;overflow=hidden;fillColor=none;top=0;left=0;bottom=0;right=0;pointerEvents=1;fontSize=20;" parent="5YusyuYlUqEuzJR2jFkQ-252" vertex="1">
          <mxGeometry x="480" width="60" height="40" as="geometry">
            <mxRectangle width="60" height="40" as="alternateBounds" />
          </mxGeometry>
        </mxCell>
        <mxCell id="5YusyuYlUqEuzJR2jFkQ-262" value="" style="shape=partialRectangle;html=1;whiteSpace=wrap;connectable=0;overflow=hidden;fillColor=none;top=0;left=0;bottom=0;right=0;pointerEvents=1;fontSize=20;" parent="5YusyuYlUqEuzJR2jFkQ-252" vertex="1">
          <mxGeometry x="540" width="60" height="40" as="geometry">
            <mxRectangle width="60" height="40" as="alternateBounds" />
          </mxGeometry>
        </mxCell>
        <mxCell id="5YusyuYlUqEuzJR2jFkQ-263" value="" style="shape=partialRectangle;html=1;whiteSpace=wrap;connectable=0;overflow=hidden;fillColor=none;top=0;left=0;bottom=0;right=0;pointerEvents=1;fontSize=20;" parent="5YusyuYlUqEuzJR2jFkQ-252" vertex="1">
          <mxGeometry x="600" width="60" height="40" as="geometry">
            <mxRectangle width="60" height="40" as="alternateBounds" />
          </mxGeometry>
        </mxCell>
        <mxCell id="5YusyuYlUqEuzJR2jFkQ-264" value="" style="shape=partialRectangle;html=1;whiteSpace=wrap;connectable=0;overflow=hidden;fillColor=none;top=0;left=0;bottom=0;right=0;pointerEvents=1;fontSize=20;" parent="5YusyuYlUqEuzJR2jFkQ-252" vertex="1">
          <mxGeometry x="660" width="60" height="40" as="geometry">
            <mxRectangle width="60" height="40" as="alternateBounds" />
          </mxGeometry>
        </mxCell>
        <mxCell id="5YusyuYlUqEuzJR2jFkQ-265" value="" style="shape=tableRow;horizontal=0;startSize=0;swimlaneHead=0;swimlaneBody=0;top=0;left=0;bottom=0;right=0;collapsible=0;dropTarget=0;fillColor=none;points=[[0,0.5],[1,0.5]];portConstraint=eastwest;fontSize=20;" parent="5YusyuYlUqEuzJR2jFkQ-199" vertex="1">
          <mxGeometry y="194" width="720" height="38" as="geometry" />
        </mxCell>
        <mxCell id="5YusyuYlUqEuzJR2jFkQ-266" value="4" style="shape=partialRectangle;html=1;whiteSpace=wrap;connectable=0;overflow=hidden;fillColor=none;top=0;left=0;bottom=0;right=0;pointerEvents=1;fontSize=20;" parent="5YusyuYlUqEuzJR2jFkQ-265" vertex="1">
          <mxGeometry width="60" height="38" as="geometry">
            <mxRectangle width="60" height="38" as="alternateBounds" />
          </mxGeometry>
        </mxCell>
        <mxCell id="5YusyuYlUqEuzJR2jFkQ-267" value="" style="shape=partialRectangle;html=1;whiteSpace=wrap;connectable=0;overflow=hidden;fillColor=none;top=0;left=0;bottom=0;right=0;pointerEvents=1;fontSize=20;" parent="5YusyuYlUqEuzJR2jFkQ-265" vertex="1">
          <mxGeometry x="60" width="60" height="38" as="geometry">
            <mxRectangle width="60" height="38" as="alternateBounds" />
          </mxGeometry>
        </mxCell>
        <mxCell id="5YusyuYlUqEuzJR2jFkQ-268" value="" style="shape=partialRectangle;html=1;whiteSpace=wrap;connectable=0;overflow=hidden;fillColor=none;top=0;left=0;bottom=0;right=0;pointerEvents=1;fontSize=20;" parent="5YusyuYlUqEuzJR2jFkQ-265" vertex="1">
          <mxGeometry x="120" width="60" height="38" as="geometry">
            <mxRectangle width="60" height="38" as="alternateBounds" />
          </mxGeometry>
        </mxCell>
        <mxCell id="5YusyuYlUqEuzJR2jFkQ-269" value="" style="shape=partialRectangle;html=1;whiteSpace=wrap;connectable=0;overflow=hidden;fillColor=none;top=0;left=0;bottom=0;right=0;pointerEvents=1;fontSize=20;" parent="5YusyuYlUqEuzJR2jFkQ-265" vertex="1">
          <mxGeometry x="180" width="60" height="38" as="geometry">
            <mxRectangle width="60" height="38" as="alternateBounds" />
          </mxGeometry>
        </mxCell>
        <mxCell id="5YusyuYlUqEuzJR2jFkQ-270" value="" style="shape=partialRectangle;html=1;whiteSpace=wrap;connectable=0;overflow=hidden;fillColor=none;top=0;left=0;bottom=0;right=0;pointerEvents=1;fontSize=20;" parent="5YusyuYlUqEuzJR2jFkQ-265" vertex="1">
          <mxGeometry x="240" width="60" height="38" as="geometry">
            <mxRectangle width="60" height="38" as="alternateBounds" />
          </mxGeometry>
        </mxCell>
        <mxCell id="5YusyuYlUqEuzJR2jFkQ-271" value="4" style="shape=partialRectangle;html=1;whiteSpace=wrap;connectable=0;overflow=hidden;fillColor=none;top=0;left=0;bottom=0;right=0;pointerEvents=1;fontSize=20;" parent="5YusyuYlUqEuzJR2jFkQ-265" vertex="1">
          <mxGeometry x="300" width="60" height="38" as="geometry">
            <mxRectangle width="60" height="38" as="alternateBounds" />
          </mxGeometry>
        </mxCell>
        <mxCell id="5YusyuYlUqEuzJR2jFkQ-272" value="" style="shape=partialRectangle;html=1;whiteSpace=wrap;connectable=0;overflow=hidden;fillColor=none;top=0;left=0;bottom=0;right=0;pointerEvents=1;fontSize=20;" parent="5YusyuYlUqEuzJR2jFkQ-265" vertex="1">
          <mxGeometry x="360" width="60" height="38" as="geometry">
            <mxRectangle width="60" height="38" as="alternateBounds" />
          </mxGeometry>
        </mxCell>
        <mxCell id="5YusyuYlUqEuzJR2jFkQ-273" value="" style="shape=partialRectangle;html=1;whiteSpace=wrap;connectable=0;overflow=hidden;fillColor=none;top=0;left=0;bottom=0;right=0;pointerEvents=1;fontSize=20;" parent="5YusyuYlUqEuzJR2jFkQ-265" vertex="1">
          <mxGeometry x="420" width="60" height="38" as="geometry">
            <mxRectangle width="60" height="38" as="alternateBounds" />
          </mxGeometry>
        </mxCell>
        <mxCell id="5YusyuYlUqEuzJR2jFkQ-274" value="" style="shape=partialRectangle;html=1;whiteSpace=wrap;connectable=0;overflow=hidden;fillColor=none;top=0;left=0;bottom=0;right=0;pointerEvents=1;fontSize=20;" parent="5YusyuYlUqEuzJR2jFkQ-265" vertex="1">
          <mxGeometry x="480" width="60" height="38" as="geometry">
            <mxRectangle width="60" height="38" as="alternateBounds" />
          </mxGeometry>
        </mxCell>
        <mxCell id="5YusyuYlUqEuzJR2jFkQ-275" value="" style="shape=partialRectangle;html=1;whiteSpace=wrap;connectable=0;overflow=hidden;fillColor=none;top=0;left=0;bottom=0;right=0;pointerEvents=1;fontSize=20;" parent="5YusyuYlUqEuzJR2jFkQ-265" vertex="1">
          <mxGeometry x="540" width="60" height="38" as="geometry">
            <mxRectangle width="60" height="38" as="alternateBounds" />
          </mxGeometry>
        </mxCell>
        <mxCell id="5YusyuYlUqEuzJR2jFkQ-276" value="" style="shape=partialRectangle;html=1;whiteSpace=wrap;connectable=0;overflow=hidden;fillColor=none;top=0;left=0;bottom=0;right=0;pointerEvents=1;fontSize=20;" parent="5YusyuYlUqEuzJR2jFkQ-265" vertex="1">
          <mxGeometry x="600" width="60" height="38" as="geometry">
            <mxRectangle width="60" height="38" as="alternateBounds" />
          </mxGeometry>
        </mxCell>
        <mxCell id="5YusyuYlUqEuzJR2jFkQ-277" value="" style="shape=partialRectangle;html=1;whiteSpace=wrap;connectable=0;overflow=hidden;fillColor=none;top=0;left=0;bottom=0;right=0;pointerEvents=1;fontSize=20;" parent="5YusyuYlUqEuzJR2jFkQ-265" vertex="1">
          <mxGeometry x="660" width="60" height="38" as="geometry">
            <mxRectangle width="60" height="38" as="alternateBounds" />
          </mxGeometry>
        </mxCell>
        <mxCell id="5YusyuYlUqEuzJR2jFkQ-278" value="" style="shape=tableRow;horizontal=0;startSize=0;swimlaneHead=0;swimlaneBody=0;top=0;left=0;bottom=0;right=0;collapsible=0;dropTarget=0;fillColor=none;points=[[0,0.5],[1,0.5]];portConstraint=eastwest;fontSize=20;" parent="5YusyuYlUqEuzJR2jFkQ-199" vertex="1">
          <mxGeometry y="232" width="720" height="38" as="geometry" />
        </mxCell>
        <mxCell id="5YusyuYlUqEuzJR2jFkQ-279" value="5" style="shape=partialRectangle;html=1;whiteSpace=wrap;connectable=0;overflow=hidden;fillColor=none;top=0;left=0;bottom=0;right=0;pointerEvents=1;fontSize=20;" parent="5YusyuYlUqEuzJR2jFkQ-278" vertex="1">
          <mxGeometry width="60" height="38" as="geometry">
            <mxRectangle width="60" height="38" as="alternateBounds" />
          </mxGeometry>
        </mxCell>
        <mxCell id="5YusyuYlUqEuzJR2jFkQ-280" value="" style="shape=partialRectangle;html=1;whiteSpace=wrap;connectable=0;overflow=hidden;fillColor=none;top=0;left=0;bottom=0;right=0;pointerEvents=1;fontSize=20;" parent="5YusyuYlUqEuzJR2jFkQ-278" vertex="1">
          <mxGeometry x="60" width="60" height="38" as="geometry">
            <mxRectangle width="60" height="38" as="alternateBounds" />
          </mxGeometry>
        </mxCell>
        <mxCell id="5YusyuYlUqEuzJR2jFkQ-281" value="" style="shape=partialRectangle;html=1;whiteSpace=wrap;connectable=0;overflow=hidden;fillColor=none;top=0;left=0;bottom=0;right=0;pointerEvents=1;fontSize=20;" parent="5YusyuYlUqEuzJR2jFkQ-278" vertex="1">
          <mxGeometry x="120" width="60" height="38" as="geometry">
            <mxRectangle width="60" height="38" as="alternateBounds" />
          </mxGeometry>
        </mxCell>
        <mxCell id="5YusyuYlUqEuzJR2jFkQ-282" value="" style="shape=partialRectangle;html=1;whiteSpace=wrap;connectable=0;overflow=hidden;fillColor=none;top=0;left=0;bottom=0;right=0;pointerEvents=1;fontSize=20;" parent="5YusyuYlUqEuzJR2jFkQ-278" vertex="1">
          <mxGeometry x="180" width="60" height="38" as="geometry">
            <mxRectangle width="60" height="38" as="alternateBounds" />
          </mxGeometry>
        </mxCell>
        <mxCell id="5YusyuYlUqEuzJR2jFkQ-283" value="" style="shape=partialRectangle;html=1;whiteSpace=wrap;connectable=0;overflow=hidden;fillColor=none;top=0;left=0;bottom=0;right=0;pointerEvents=1;fontSize=20;" parent="5YusyuYlUqEuzJR2jFkQ-278" vertex="1">
          <mxGeometry x="240" width="60" height="38" as="geometry">
            <mxRectangle width="60" height="38" as="alternateBounds" />
          </mxGeometry>
        </mxCell>
        <mxCell id="5YusyuYlUqEuzJR2jFkQ-284" value="" style="shape=partialRectangle;html=1;whiteSpace=wrap;connectable=0;overflow=hidden;fillColor=none;top=0;left=0;bottom=0;right=0;pointerEvents=1;fontSize=20;" parent="5YusyuYlUqEuzJR2jFkQ-278" vertex="1">
          <mxGeometry x="300" width="60" height="38" as="geometry">
            <mxRectangle width="60" height="38" as="alternateBounds" />
          </mxGeometry>
        </mxCell>
        <mxCell id="5YusyuYlUqEuzJR2jFkQ-285" value="" style="shape=partialRectangle;html=1;whiteSpace=wrap;connectable=0;overflow=hidden;fillColor=none;top=0;left=0;bottom=0;right=0;pointerEvents=1;fontSize=20;" parent="5YusyuYlUqEuzJR2jFkQ-278" vertex="1">
          <mxGeometry x="360" width="60" height="38" as="geometry">
            <mxRectangle width="60" height="38" as="alternateBounds" />
          </mxGeometry>
        </mxCell>
        <mxCell id="5YusyuYlUqEuzJR2jFkQ-286" value="" style="shape=partialRectangle;html=1;whiteSpace=wrap;connectable=0;overflow=hidden;fillColor=none;top=0;left=0;bottom=0;right=0;pointerEvents=1;fontSize=20;" parent="5YusyuYlUqEuzJR2jFkQ-278" vertex="1">
          <mxGeometry x="420" width="60" height="38" as="geometry">
            <mxRectangle width="60" height="38" as="alternateBounds" />
          </mxGeometry>
        </mxCell>
        <mxCell id="5YusyuYlUqEuzJR2jFkQ-287" value="" style="shape=partialRectangle;html=1;whiteSpace=wrap;connectable=0;overflow=hidden;fillColor=none;top=0;left=0;bottom=0;right=0;pointerEvents=1;fontSize=20;" parent="5YusyuYlUqEuzJR2jFkQ-278" vertex="1">
          <mxGeometry x="480" width="60" height="38" as="geometry">
            <mxRectangle width="60" height="38" as="alternateBounds" />
          </mxGeometry>
        </mxCell>
        <mxCell id="5YusyuYlUqEuzJR2jFkQ-288" value="" style="shape=partialRectangle;html=1;whiteSpace=wrap;connectable=0;overflow=hidden;fillColor=none;top=0;left=0;bottom=0;right=0;pointerEvents=1;fontSize=20;" parent="5YusyuYlUqEuzJR2jFkQ-278" vertex="1">
          <mxGeometry x="540" width="60" height="38" as="geometry">
            <mxRectangle width="60" height="38" as="alternateBounds" />
          </mxGeometry>
        </mxCell>
        <mxCell id="5YusyuYlUqEuzJR2jFkQ-289" value="" style="shape=partialRectangle;html=1;whiteSpace=wrap;connectable=0;overflow=hidden;fillColor=none;top=0;left=0;bottom=0;right=0;pointerEvents=1;fontSize=20;" parent="5YusyuYlUqEuzJR2jFkQ-278" vertex="1">
          <mxGeometry x="600" width="60" height="38" as="geometry">
            <mxRectangle width="60" height="38" as="alternateBounds" />
          </mxGeometry>
        </mxCell>
        <mxCell id="5YusyuYlUqEuzJR2jFkQ-290" value="" style="shape=partialRectangle;html=1;whiteSpace=wrap;connectable=0;overflow=hidden;fillColor=none;top=0;left=0;bottom=0;right=0;pointerEvents=1;fontSize=20;" parent="5YusyuYlUqEuzJR2jFkQ-278" vertex="1">
          <mxGeometry x="660" width="60" height="38" as="geometry">
            <mxRectangle width="60" height="38" as="alternateBounds" />
          </mxGeometry>
        </mxCell>
        <mxCell id="5YusyuYlUqEuzJR2jFkQ-291" value="" style="shape=tableRow;horizontal=0;startSize=0;swimlaneHead=0;swimlaneBody=0;top=0;left=0;bottom=0;right=0;collapsible=0;dropTarget=0;fillColor=none;points=[[0,0.5],[1,0.5]];portConstraint=eastwest;fontSize=20;" parent="5YusyuYlUqEuzJR2jFkQ-199" vertex="1">
          <mxGeometry y="270" width="720" height="40" as="geometry" />
        </mxCell>
        <mxCell id="5YusyuYlUqEuzJR2jFkQ-292" value="6" style="shape=partialRectangle;html=1;whiteSpace=wrap;connectable=0;overflow=hidden;fillColor=none;top=0;left=0;bottom=0;right=0;pointerEvents=1;fontSize=20;" parent="5YusyuYlUqEuzJR2jFkQ-291" vertex="1">
          <mxGeometry width="60" height="40" as="geometry">
            <mxRectangle width="60" height="40" as="alternateBounds" />
          </mxGeometry>
        </mxCell>
        <mxCell id="5YusyuYlUqEuzJR2jFkQ-293" value="" style="shape=partialRectangle;html=1;whiteSpace=wrap;connectable=0;overflow=hidden;fillColor=none;top=0;left=0;bottom=0;right=0;pointerEvents=1;fontSize=20;" parent="5YusyuYlUqEuzJR2jFkQ-291" vertex="1">
          <mxGeometry x="60" width="60" height="40" as="geometry">
            <mxRectangle width="60" height="40" as="alternateBounds" />
          </mxGeometry>
        </mxCell>
        <mxCell id="5YusyuYlUqEuzJR2jFkQ-294" value="" style="shape=partialRectangle;html=1;whiteSpace=wrap;connectable=0;overflow=hidden;fillColor=none;top=0;left=0;bottom=0;right=0;pointerEvents=1;fontSize=20;" parent="5YusyuYlUqEuzJR2jFkQ-291" vertex="1">
          <mxGeometry x="120" width="60" height="40" as="geometry">
            <mxRectangle width="60" height="40" as="alternateBounds" />
          </mxGeometry>
        </mxCell>
        <mxCell id="5YusyuYlUqEuzJR2jFkQ-295" value="" style="shape=partialRectangle;html=1;whiteSpace=wrap;connectable=0;overflow=hidden;fillColor=none;top=0;left=0;bottom=0;right=0;pointerEvents=1;fontSize=20;" parent="5YusyuYlUqEuzJR2jFkQ-291" vertex="1">
          <mxGeometry x="180" width="60" height="40" as="geometry">
            <mxRectangle width="60" height="40" as="alternateBounds" />
          </mxGeometry>
        </mxCell>
        <mxCell id="5YusyuYlUqEuzJR2jFkQ-296" value="" style="shape=partialRectangle;html=1;whiteSpace=wrap;connectable=0;overflow=hidden;fillColor=none;top=0;left=0;bottom=0;right=0;pointerEvents=1;fontSize=20;" parent="5YusyuYlUqEuzJR2jFkQ-291" vertex="1">
          <mxGeometry x="240" width="60" height="40" as="geometry">
            <mxRectangle width="60" height="40" as="alternateBounds" />
          </mxGeometry>
        </mxCell>
        <mxCell id="5YusyuYlUqEuzJR2jFkQ-297" value="" style="shape=partialRectangle;html=1;whiteSpace=wrap;connectable=0;overflow=hidden;fillColor=none;top=0;left=0;bottom=0;right=0;pointerEvents=1;fontSize=20;" parent="5YusyuYlUqEuzJR2jFkQ-291" vertex="1">
          <mxGeometry x="300" width="60" height="40" as="geometry">
            <mxRectangle width="60" height="40" as="alternateBounds" />
          </mxGeometry>
        </mxCell>
        <mxCell id="5YusyuYlUqEuzJR2jFkQ-298" value="" style="shape=partialRectangle;html=1;whiteSpace=wrap;connectable=0;overflow=hidden;fillColor=none;top=0;left=0;bottom=0;right=0;pointerEvents=1;fontSize=20;" parent="5YusyuYlUqEuzJR2jFkQ-291" vertex="1">
          <mxGeometry x="360" width="60" height="40" as="geometry">
            <mxRectangle width="60" height="40" as="alternateBounds" />
          </mxGeometry>
        </mxCell>
        <mxCell id="5YusyuYlUqEuzJR2jFkQ-299" value="3" style="shape=partialRectangle;html=1;whiteSpace=wrap;connectable=0;overflow=hidden;fillColor=none;top=0;left=0;bottom=0;right=0;pointerEvents=1;fontSize=20;" parent="5YusyuYlUqEuzJR2jFkQ-291" vertex="1">
          <mxGeometry x="420" width="60" height="40" as="geometry">
            <mxRectangle width="60" height="40" as="alternateBounds" />
          </mxGeometry>
        </mxCell>
        <mxCell id="5YusyuYlUqEuzJR2jFkQ-300" value="" style="shape=partialRectangle;html=1;whiteSpace=wrap;connectable=0;overflow=hidden;fillColor=none;top=0;left=0;bottom=0;right=0;pointerEvents=1;fontSize=20;" parent="5YusyuYlUqEuzJR2jFkQ-291" vertex="1">
          <mxGeometry x="480" width="60" height="40" as="geometry">
            <mxRectangle width="60" height="40" as="alternateBounds" />
          </mxGeometry>
        </mxCell>
        <mxCell id="5YusyuYlUqEuzJR2jFkQ-301" value="" style="shape=partialRectangle;html=1;whiteSpace=wrap;connectable=0;overflow=hidden;fillColor=none;top=0;left=0;bottom=0;right=0;pointerEvents=1;fontSize=20;" parent="5YusyuYlUqEuzJR2jFkQ-291" vertex="1">
          <mxGeometry x="540" width="60" height="40" as="geometry">
            <mxRectangle width="60" height="40" as="alternateBounds" />
          </mxGeometry>
        </mxCell>
        <mxCell id="5YusyuYlUqEuzJR2jFkQ-302" value="" style="shape=partialRectangle;html=1;whiteSpace=wrap;connectable=0;overflow=hidden;fillColor=none;top=0;left=0;bottom=0;right=0;pointerEvents=1;fontSize=20;" parent="5YusyuYlUqEuzJR2jFkQ-291" vertex="1">
          <mxGeometry x="600" width="60" height="40" as="geometry">
            <mxRectangle width="60" height="40" as="alternateBounds" />
          </mxGeometry>
        </mxCell>
        <mxCell id="5YusyuYlUqEuzJR2jFkQ-303" value="" style="shape=partialRectangle;html=1;whiteSpace=wrap;connectable=0;overflow=hidden;fillColor=none;top=0;left=0;bottom=0;right=0;pointerEvents=1;fontSize=20;" parent="5YusyuYlUqEuzJR2jFkQ-291" vertex="1">
          <mxGeometry x="660" width="60" height="40" as="geometry">
            <mxRectangle width="60" height="40" as="alternateBounds" />
          </mxGeometry>
        </mxCell>
        <mxCell id="5YusyuYlUqEuzJR2jFkQ-304" value="" style="shape=tableRow;horizontal=0;startSize=0;swimlaneHead=0;swimlaneBody=0;top=0;left=0;bottom=0;right=0;collapsible=0;dropTarget=0;fillColor=none;points=[[0,0.5],[1,0.5]];portConstraint=eastwest;fontSize=20;" parent="5YusyuYlUqEuzJR2jFkQ-199" vertex="1">
          <mxGeometry y="310" width="720" height="38" as="geometry" />
        </mxCell>
        <mxCell id="5YusyuYlUqEuzJR2jFkQ-305" value="7" style="shape=partialRectangle;html=1;whiteSpace=wrap;connectable=0;overflow=hidden;fillColor=none;top=0;left=0;bottom=0;right=0;pointerEvents=1;fontSize=20;" parent="5YusyuYlUqEuzJR2jFkQ-304" vertex="1">
          <mxGeometry width="60" height="38" as="geometry">
            <mxRectangle width="60" height="38" as="alternateBounds" />
          </mxGeometry>
        </mxCell>
        <mxCell id="5YusyuYlUqEuzJR2jFkQ-306" value="" style="shape=partialRectangle;html=1;whiteSpace=wrap;connectable=0;overflow=hidden;fillColor=none;top=0;left=0;bottom=0;right=0;pointerEvents=1;fontSize=20;" parent="5YusyuYlUqEuzJR2jFkQ-304" vertex="1">
          <mxGeometry x="60" width="60" height="38" as="geometry">
            <mxRectangle width="60" height="38" as="alternateBounds" />
          </mxGeometry>
        </mxCell>
        <mxCell id="5YusyuYlUqEuzJR2jFkQ-307" value="" style="shape=partialRectangle;html=1;whiteSpace=wrap;connectable=0;overflow=hidden;fillColor=none;top=0;left=0;bottom=0;right=0;pointerEvents=1;fontSize=20;" parent="5YusyuYlUqEuzJR2jFkQ-304" vertex="1">
          <mxGeometry x="120" width="60" height="38" as="geometry">
            <mxRectangle width="60" height="38" as="alternateBounds" />
          </mxGeometry>
        </mxCell>
        <mxCell id="5YusyuYlUqEuzJR2jFkQ-308" value="" style="shape=partialRectangle;html=1;whiteSpace=wrap;connectable=0;overflow=hidden;fillColor=none;top=0;left=0;bottom=0;right=0;pointerEvents=1;fontSize=20;" parent="5YusyuYlUqEuzJR2jFkQ-304" vertex="1">
          <mxGeometry x="180" width="60" height="38" as="geometry">
            <mxRectangle width="60" height="38" as="alternateBounds" />
          </mxGeometry>
        </mxCell>
        <mxCell id="5YusyuYlUqEuzJR2jFkQ-309" value="" style="shape=partialRectangle;html=1;whiteSpace=wrap;connectable=0;overflow=hidden;fillColor=none;top=0;left=0;bottom=0;right=0;pointerEvents=1;fontSize=20;" parent="5YusyuYlUqEuzJR2jFkQ-304" vertex="1">
          <mxGeometry x="240" width="60" height="38" as="geometry">
            <mxRectangle width="60" height="38" as="alternateBounds" />
          </mxGeometry>
        </mxCell>
        <mxCell id="5YusyuYlUqEuzJR2jFkQ-310" value="" style="shape=partialRectangle;html=1;whiteSpace=wrap;connectable=0;overflow=hidden;fillColor=none;top=0;left=0;bottom=0;right=0;pointerEvents=1;fontSize=20;" parent="5YusyuYlUqEuzJR2jFkQ-304" vertex="1">
          <mxGeometry x="300" width="60" height="38" as="geometry">
            <mxRectangle width="60" height="38" as="alternateBounds" />
          </mxGeometry>
        </mxCell>
        <mxCell id="5YusyuYlUqEuzJR2jFkQ-311" value="" style="shape=partialRectangle;html=1;whiteSpace=wrap;connectable=0;overflow=hidden;fillColor=none;top=0;left=0;bottom=0;right=0;pointerEvents=1;fontSize=20;" parent="5YusyuYlUqEuzJR2jFkQ-304" vertex="1">
          <mxGeometry x="360" width="60" height="38" as="geometry">
            <mxRectangle width="60" height="38" as="alternateBounds" />
          </mxGeometry>
        </mxCell>
        <mxCell id="5YusyuYlUqEuzJR2jFkQ-312" value="" style="shape=partialRectangle;html=1;whiteSpace=wrap;connectable=0;overflow=hidden;fillColor=none;top=0;left=0;bottom=0;right=0;pointerEvents=1;fontSize=20;" parent="5YusyuYlUqEuzJR2jFkQ-304" vertex="1">
          <mxGeometry x="420" width="60" height="38" as="geometry">
            <mxRectangle width="60" height="38" as="alternateBounds" />
          </mxGeometry>
        </mxCell>
        <mxCell id="5YusyuYlUqEuzJR2jFkQ-313" value="" style="shape=partialRectangle;html=1;whiteSpace=wrap;connectable=0;overflow=hidden;fillColor=none;top=0;left=0;bottom=0;right=0;pointerEvents=1;fontSize=20;" parent="5YusyuYlUqEuzJR2jFkQ-304" vertex="1">
          <mxGeometry x="480" width="60" height="38" as="geometry">
            <mxRectangle width="60" height="38" as="alternateBounds" />
          </mxGeometry>
        </mxCell>
        <mxCell id="5YusyuYlUqEuzJR2jFkQ-314" value="" style="shape=partialRectangle;html=1;whiteSpace=wrap;connectable=0;overflow=hidden;fillColor=none;top=0;left=0;bottom=0;right=0;pointerEvents=1;fontSize=20;" parent="5YusyuYlUqEuzJR2jFkQ-304" vertex="1">
          <mxGeometry x="540" width="60" height="38" as="geometry">
            <mxRectangle width="60" height="38" as="alternateBounds" />
          </mxGeometry>
        </mxCell>
        <mxCell id="5YusyuYlUqEuzJR2jFkQ-315" value="" style="shape=partialRectangle;html=1;whiteSpace=wrap;connectable=0;overflow=hidden;fillColor=none;top=0;left=0;bottom=0;right=0;pointerEvents=1;fontSize=20;" parent="5YusyuYlUqEuzJR2jFkQ-304" vertex="1">
          <mxGeometry x="600" width="60" height="38" as="geometry">
            <mxRectangle width="60" height="38" as="alternateBounds" />
          </mxGeometry>
        </mxCell>
        <mxCell id="5YusyuYlUqEuzJR2jFkQ-316" value="" style="shape=partialRectangle;html=1;whiteSpace=wrap;connectable=0;overflow=hidden;fillColor=none;top=0;left=0;bottom=0;right=0;pointerEvents=1;fontSize=20;" parent="5YusyuYlUqEuzJR2jFkQ-304" vertex="1">
          <mxGeometry x="660" width="60" height="38" as="geometry">
            <mxRectangle width="60" height="38" as="alternateBounds" />
          </mxGeometry>
        </mxCell>
        <mxCell id="5YusyuYlUqEuzJR2jFkQ-317" value="" style="shape=tableRow;horizontal=0;startSize=0;swimlaneHead=0;swimlaneBody=0;top=0;left=0;bottom=0;right=0;collapsible=0;dropTarget=0;fillColor=none;points=[[0,0.5],[1,0.5]];portConstraint=eastwest;fontSize=20;" parent="5YusyuYlUqEuzJR2jFkQ-199" vertex="1">
          <mxGeometry y="348" width="720" height="38" as="geometry" />
        </mxCell>
        <mxCell id="5YusyuYlUqEuzJR2jFkQ-318" value="8" style="shape=partialRectangle;html=1;whiteSpace=wrap;connectable=0;overflow=hidden;fillColor=none;top=0;left=0;bottom=0;right=0;pointerEvents=1;fontSize=20;" parent="5YusyuYlUqEuzJR2jFkQ-317" vertex="1">
          <mxGeometry width="60" height="38" as="geometry">
            <mxRectangle width="60" height="38" as="alternateBounds" />
          </mxGeometry>
        </mxCell>
        <mxCell id="5YusyuYlUqEuzJR2jFkQ-319" value="" style="shape=partialRectangle;html=1;whiteSpace=wrap;connectable=0;overflow=hidden;fillColor=none;top=0;left=0;bottom=0;right=0;pointerEvents=1;fontSize=20;" parent="5YusyuYlUqEuzJR2jFkQ-317" vertex="1">
          <mxGeometry x="60" width="60" height="38" as="geometry">
            <mxRectangle width="60" height="38" as="alternateBounds" />
          </mxGeometry>
        </mxCell>
        <mxCell id="5YusyuYlUqEuzJR2jFkQ-320" value="" style="shape=partialRectangle;html=1;whiteSpace=wrap;connectable=0;overflow=hidden;fillColor=none;top=0;left=0;bottom=0;right=0;pointerEvents=1;fontSize=20;" parent="5YusyuYlUqEuzJR2jFkQ-317" vertex="1">
          <mxGeometry x="120" width="60" height="38" as="geometry">
            <mxRectangle width="60" height="38" as="alternateBounds" />
          </mxGeometry>
        </mxCell>
        <mxCell id="5YusyuYlUqEuzJR2jFkQ-321" value="" style="shape=partialRectangle;html=1;whiteSpace=wrap;connectable=0;overflow=hidden;fillColor=none;top=0;left=0;bottom=0;right=0;pointerEvents=1;fontSize=20;" parent="5YusyuYlUqEuzJR2jFkQ-317" vertex="1">
          <mxGeometry x="180" width="60" height="38" as="geometry">
            <mxRectangle width="60" height="38" as="alternateBounds" />
          </mxGeometry>
        </mxCell>
        <mxCell id="5YusyuYlUqEuzJR2jFkQ-322" value="" style="shape=partialRectangle;html=1;whiteSpace=wrap;connectable=0;overflow=hidden;fillColor=none;top=0;left=0;bottom=0;right=0;pointerEvents=1;fontSize=20;" parent="5YusyuYlUqEuzJR2jFkQ-317" vertex="1">
          <mxGeometry x="240" width="60" height="38" as="geometry">
            <mxRectangle width="60" height="38" as="alternateBounds" />
          </mxGeometry>
        </mxCell>
        <mxCell id="5YusyuYlUqEuzJR2jFkQ-323" value="" style="shape=partialRectangle;html=1;whiteSpace=wrap;connectable=0;overflow=hidden;fillColor=none;top=0;left=0;bottom=0;right=0;pointerEvents=1;fontSize=20;" parent="5YusyuYlUqEuzJR2jFkQ-317" vertex="1">
          <mxGeometry x="300" width="60" height="38" as="geometry">
            <mxRectangle width="60" height="38" as="alternateBounds" />
          </mxGeometry>
        </mxCell>
        <mxCell id="5YusyuYlUqEuzJR2jFkQ-324" value="" style="shape=partialRectangle;html=1;whiteSpace=wrap;connectable=0;overflow=hidden;fillColor=none;top=0;left=0;bottom=0;right=0;pointerEvents=1;fontSize=20;" parent="5YusyuYlUqEuzJR2jFkQ-317" vertex="1">
          <mxGeometry x="360" width="60" height="38" as="geometry">
            <mxRectangle width="60" height="38" as="alternateBounds" />
          </mxGeometry>
        </mxCell>
        <mxCell id="5YusyuYlUqEuzJR2jFkQ-325" value="" style="shape=partialRectangle;html=1;whiteSpace=wrap;connectable=0;overflow=hidden;fillColor=none;top=0;left=0;bottom=0;right=0;pointerEvents=1;fontSize=20;" parent="5YusyuYlUqEuzJR2jFkQ-317" vertex="1">
          <mxGeometry x="420" width="60" height="38" as="geometry">
            <mxRectangle width="60" height="38" as="alternateBounds" />
          </mxGeometry>
        </mxCell>
        <mxCell id="5YusyuYlUqEuzJR2jFkQ-326" value="" style="shape=partialRectangle;html=1;whiteSpace=wrap;connectable=0;overflow=hidden;fillColor=none;top=0;left=0;bottom=0;right=0;pointerEvents=1;fontSize=20;" parent="5YusyuYlUqEuzJR2jFkQ-317" vertex="1">
          <mxGeometry x="480" width="60" height="38" as="geometry">
            <mxRectangle width="60" height="38" as="alternateBounds" />
          </mxGeometry>
        </mxCell>
        <mxCell id="5YusyuYlUqEuzJR2jFkQ-327" value="" style="shape=partialRectangle;html=1;whiteSpace=wrap;connectable=0;overflow=hidden;fillColor=none;top=0;left=0;bottom=0;right=0;pointerEvents=1;fontSize=20;" parent="5YusyuYlUqEuzJR2jFkQ-317" vertex="1">
          <mxGeometry x="540" width="60" height="38" as="geometry">
            <mxRectangle width="60" height="38" as="alternateBounds" />
          </mxGeometry>
        </mxCell>
        <mxCell id="5YusyuYlUqEuzJR2jFkQ-328" value="" style="shape=partialRectangle;html=1;whiteSpace=wrap;connectable=0;overflow=hidden;fillColor=none;top=0;left=0;bottom=0;right=0;pointerEvents=1;fontSize=20;" parent="5YusyuYlUqEuzJR2jFkQ-317" vertex="1">
          <mxGeometry x="600" width="60" height="38" as="geometry">
            <mxRectangle width="60" height="38" as="alternateBounds" />
          </mxGeometry>
        </mxCell>
        <mxCell id="5YusyuYlUqEuzJR2jFkQ-329" value="" style="shape=partialRectangle;html=1;whiteSpace=wrap;connectable=0;overflow=hidden;fillColor=none;top=0;left=0;bottom=0;right=0;pointerEvents=1;fontSize=20;" parent="5YusyuYlUqEuzJR2jFkQ-317" vertex="1">
          <mxGeometry x="660" width="60" height="38" as="geometry">
            <mxRectangle width="60" height="38" as="alternateBounds" />
          </mxGeometry>
        </mxCell>
        <mxCell id="5YusyuYlUqEuzJR2jFkQ-330" value="" style="shape=tableRow;horizontal=0;startSize=0;swimlaneHead=0;swimlaneBody=0;top=0;left=0;bottom=0;right=0;collapsible=0;dropTarget=0;fillColor=none;points=[[0,0.5],[1,0.5]];portConstraint=eastwest;fontSize=20;" parent="5YusyuYlUqEuzJR2jFkQ-199" vertex="1">
          <mxGeometry y="386" width="720" height="40" as="geometry" />
        </mxCell>
        <mxCell id="5YusyuYlUqEuzJR2jFkQ-331" value="9" style="shape=partialRectangle;html=1;whiteSpace=wrap;connectable=0;overflow=hidden;fillColor=none;top=0;left=0;bottom=0;right=0;pointerEvents=1;fontSize=20;" parent="5YusyuYlUqEuzJR2jFkQ-330" vertex="1">
          <mxGeometry width="60" height="40" as="geometry">
            <mxRectangle width="60" height="40" as="alternateBounds" />
          </mxGeometry>
        </mxCell>
        <mxCell id="5YusyuYlUqEuzJR2jFkQ-332" value="" style="shape=partialRectangle;html=1;whiteSpace=wrap;connectable=0;overflow=hidden;fillColor=none;top=0;left=0;bottom=0;right=0;pointerEvents=1;fontSize=20;" parent="5YusyuYlUqEuzJR2jFkQ-330" vertex="1">
          <mxGeometry x="60" width="60" height="40" as="geometry">
            <mxRectangle width="60" height="40" as="alternateBounds" />
          </mxGeometry>
        </mxCell>
        <mxCell id="5YusyuYlUqEuzJR2jFkQ-333" value="" style="shape=partialRectangle;html=1;whiteSpace=wrap;connectable=0;overflow=hidden;fillColor=none;top=0;left=0;bottom=0;right=0;pointerEvents=1;fontSize=20;" parent="5YusyuYlUqEuzJR2jFkQ-330" vertex="1">
          <mxGeometry x="120" width="60" height="40" as="geometry">
            <mxRectangle width="60" height="40" as="alternateBounds" />
          </mxGeometry>
        </mxCell>
        <mxCell id="5YusyuYlUqEuzJR2jFkQ-334" value="" style="shape=partialRectangle;html=1;whiteSpace=wrap;connectable=0;overflow=hidden;fillColor=none;top=0;left=0;bottom=0;right=0;pointerEvents=1;fontSize=20;" parent="5YusyuYlUqEuzJR2jFkQ-330" vertex="1">
          <mxGeometry x="180" width="60" height="40" as="geometry">
            <mxRectangle width="60" height="40" as="alternateBounds" />
          </mxGeometry>
        </mxCell>
        <mxCell id="5YusyuYlUqEuzJR2jFkQ-335" value="" style="shape=partialRectangle;html=1;whiteSpace=wrap;connectable=0;overflow=hidden;fillColor=none;top=0;left=0;bottom=0;right=0;pointerEvents=1;fontSize=20;" parent="5YusyuYlUqEuzJR2jFkQ-330" vertex="1">
          <mxGeometry x="240" width="60" height="40" as="geometry">
            <mxRectangle width="60" height="40" as="alternateBounds" />
          </mxGeometry>
        </mxCell>
        <mxCell id="5YusyuYlUqEuzJR2jFkQ-336" value="" style="shape=partialRectangle;html=1;whiteSpace=wrap;connectable=0;overflow=hidden;fillColor=none;top=0;left=0;bottom=0;right=0;pointerEvents=1;fontSize=20;" parent="5YusyuYlUqEuzJR2jFkQ-330" vertex="1">
          <mxGeometry x="300" width="60" height="40" as="geometry">
            <mxRectangle width="60" height="40" as="alternateBounds" />
          </mxGeometry>
        </mxCell>
        <mxCell id="5YusyuYlUqEuzJR2jFkQ-337" value="" style="shape=partialRectangle;html=1;whiteSpace=wrap;connectable=0;overflow=hidden;fillColor=none;top=0;left=0;bottom=0;right=0;pointerEvents=1;fontSize=20;" parent="5YusyuYlUqEuzJR2jFkQ-330" vertex="1">
          <mxGeometry x="360" width="60" height="40" as="geometry">
            <mxRectangle width="60" height="40" as="alternateBounds" />
          </mxGeometry>
        </mxCell>
        <mxCell id="5YusyuYlUqEuzJR2jFkQ-338" value="" style="shape=partialRectangle;html=1;whiteSpace=wrap;connectable=0;overflow=hidden;fillColor=none;top=0;left=0;bottom=0;right=0;pointerEvents=1;fontSize=20;" parent="5YusyuYlUqEuzJR2jFkQ-330" vertex="1">
          <mxGeometry x="420" width="60" height="40" as="geometry">
            <mxRectangle width="60" height="40" as="alternateBounds" />
          </mxGeometry>
        </mxCell>
        <mxCell id="5YusyuYlUqEuzJR2jFkQ-339" value="" style="shape=partialRectangle;html=1;whiteSpace=wrap;connectable=0;overflow=hidden;fillColor=none;top=0;left=0;bottom=0;right=0;pointerEvents=1;fontSize=20;" parent="5YusyuYlUqEuzJR2jFkQ-330" vertex="1">
          <mxGeometry x="480" width="60" height="40" as="geometry">
            <mxRectangle width="60" height="40" as="alternateBounds" />
          </mxGeometry>
        </mxCell>
        <mxCell id="5YusyuYlUqEuzJR2jFkQ-340" value="" style="shape=partialRectangle;html=1;whiteSpace=wrap;connectable=0;overflow=hidden;fillColor=none;top=0;left=0;bottom=0;right=0;pointerEvents=1;fontSize=20;" parent="5YusyuYlUqEuzJR2jFkQ-330" vertex="1">
          <mxGeometry x="540" width="60" height="40" as="geometry">
            <mxRectangle width="60" height="40" as="alternateBounds" />
          </mxGeometry>
        </mxCell>
        <mxCell id="5YusyuYlUqEuzJR2jFkQ-341" value="" style="shape=partialRectangle;html=1;whiteSpace=wrap;connectable=0;overflow=hidden;fillColor=none;top=0;left=0;bottom=0;right=0;pointerEvents=1;fontSize=20;" parent="5YusyuYlUqEuzJR2jFkQ-330" vertex="1">
          <mxGeometry x="600" width="60" height="40" as="geometry">
            <mxRectangle width="60" height="40" as="alternateBounds" />
          </mxGeometry>
        </mxCell>
        <mxCell id="5YusyuYlUqEuzJR2jFkQ-342" value="" style="shape=partialRectangle;html=1;whiteSpace=wrap;connectable=0;overflow=hidden;fillColor=none;top=0;left=0;bottom=0;right=0;pointerEvents=1;fontSize=20;" parent="5YusyuYlUqEuzJR2jFkQ-330" vertex="1">
          <mxGeometry x="660" width="60" height="40" as="geometry">
            <mxRectangle width="60" height="40" as="alternateBounds" />
          </mxGeometry>
        </mxCell>
        <mxCell id="5YusyuYlUqEuzJR2jFkQ-343" value="" style="shape=tableRow;horizontal=0;startSize=0;swimlaneHead=0;swimlaneBody=0;top=0;left=0;bottom=0;right=0;collapsible=0;dropTarget=0;fillColor=none;points=[[0,0.5],[1,0.5]];portConstraint=eastwest;fontSize=20;" parent="5YusyuYlUqEuzJR2jFkQ-199" vertex="1">
          <mxGeometry y="426" width="720" height="38" as="geometry" />
        </mxCell>
        <mxCell id="5YusyuYlUqEuzJR2jFkQ-344" value="10" style="shape=partialRectangle;html=1;whiteSpace=wrap;connectable=0;overflow=hidden;fillColor=none;top=0;left=0;bottom=0;right=0;pointerEvents=1;fontSize=20;" parent="5YusyuYlUqEuzJR2jFkQ-343" vertex="1">
          <mxGeometry width="60" height="38" as="geometry">
            <mxRectangle width="60" height="38" as="alternateBounds" />
          </mxGeometry>
        </mxCell>
        <mxCell id="5YusyuYlUqEuzJR2jFkQ-345" value="" style="shape=partialRectangle;html=1;whiteSpace=wrap;connectable=0;overflow=hidden;fillColor=none;top=0;left=0;bottom=0;right=0;pointerEvents=1;fontSize=20;" parent="5YusyuYlUqEuzJR2jFkQ-343" vertex="1">
          <mxGeometry x="60" width="60" height="38" as="geometry">
            <mxRectangle width="60" height="38" as="alternateBounds" />
          </mxGeometry>
        </mxCell>
        <mxCell id="5YusyuYlUqEuzJR2jFkQ-346" value="" style="shape=partialRectangle;html=1;whiteSpace=wrap;connectable=0;overflow=hidden;fillColor=none;top=0;left=0;bottom=0;right=0;pointerEvents=1;fontSize=20;" parent="5YusyuYlUqEuzJR2jFkQ-343" vertex="1">
          <mxGeometry x="120" width="60" height="38" as="geometry">
            <mxRectangle width="60" height="38" as="alternateBounds" />
          </mxGeometry>
        </mxCell>
        <mxCell id="5YusyuYlUqEuzJR2jFkQ-347" value="" style="shape=partialRectangle;html=1;whiteSpace=wrap;connectable=0;overflow=hidden;fillColor=none;top=0;left=0;bottom=0;right=0;pointerEvents=1;fontSize=20;" parent="5YusyuYlUqEuzJR2jFkQ-343" vertex="1">
          <mxGeometry x="180" width="60" height="38" as="geometry">
            <mxRectangle width="60" height="38" as="alternateBounds" />
          </mxGeometry>
        </mxCell>
        <mxCell id="5YusyuYlUqEuzJR2jFkQ-348" value="" style="shape=partialRectangle;html=1;whiteSpace=wrap;connectable=0;overflow=hidden;fillColor=none;top=0;left=0;bottom=0;right=0;pointerEvents=1;fontSize=20;" parent="5YusyuYlUqEuzJR2jFkQ-343" vertex="1">
          <mxGeometry x="240" width="60" height="38" as="geometry">
            <mxRectangle width="60" height="38" as="alternateBounds" />
          </mxGeometry>
        </mxCell>
        <mxCell id="5YusyuYlUqEuzJR2jFkQ-349" value="" style="shape=partialRectangle;html=1;whiteSpace=wrap;connectable=0;overflow=hidden;fillColor=none;top=0;left=0;bottom=0;right=0;pointerEvents=1;fontSize=20;" parent="5YusyuYlUqEuzJR2jFkQ-343" vertex="1">
          <mxGeometry x="300" width="60" height="38" as="geometry">
            <mxRectangle width="60" height="38" as="alternateBounds" />
          </mxGeometry>
        </mxCell>
        <mxCell id="5YusyuYlUqEuzJR2jFkQ-350" value="" style="shape=partialRectangle;html=1;whiteSpace=wrap;connectable=0;overflow=hidden;fillColor=none;top=0;left=0;bottom=0;right=0;pointerEvents=1;fontSize=20;" parent="5YusyuYlUqEuzJR2jFkQ-343" vertex="1">
          <mxGeometry x="360" width="60" height="38" as="geometry">
            <mxRectangle width="60" height="38" as="alternateBounds" />
          </mxGeometry>
        </mxCell>
        <mxCell id="5YusyuYlUqEuzJR2jFkQ-351" value="" style="shape=partialRectangle;html=1;whiteSpace=wrap;connectable=0;overflow=hidden;fillColor=none;top=0;left=0;bottom=0;right=0;pointerEvents=1;fontSize=20;" parent="5YusyuYlUqEuzJR2jFkQ-343" vertex="1">
          <mxGeometry x="420" width="60" height="38" as="geometry">
            <mxRectangle width="60" height="38" as="alternateBounds" />
          </mxGeometry>
        </mxCell>
        <mxCell id="5YusyuYlUqEuzJR2jFkQ-352" value="" style="shape=partialRectangle;html=1;whiteSpace=wrap;connectable=0;overflow=hidden;fillColor=none;top=0;left=0;bottom=0;right=0;pointerEvents=1;fontSize=20;" parent="5YusyuYlUqEuzJR2jFkQ-343" vertex="1">
          <mxGeometry x="480" width="60" height="38" as="geometry">
            <mxRectangle width="60" height="38" as="alternateBounds" />
          </mxGeometry>
        </mxCell>
        <mxCell id="5YusyuYlUqEuzJR2jFkQ-353" value="" style="shape=partialRectangle;html=1;whiteSpace=wrap;connectable=0;overflow=hidden;fillColor=none;top=0;left=0;bottom=0;right=0;pointerEvents=1;fontSize=20;" parent="5YusyuYlUqEuzJR2jFkQ-343" vertex="1">
          <mxGeometry x="540" width="60" height="38" as="geometry">
            <mxRectangle width="60" height="38" as="alternateBounds" />
          </mxGeometry>
        </mxCell>
        <mxCell id="5YusyuYlUqEuzJR2jFkQ-354" value="" style="shape=partialRectangle;html=1;whiteSpace=wrap;connectable=0;overflow=hidden;fillColor=none;top=0;left=0;bottom=0;right=0;pointerEvents=1;fontSize=20;" parent="5YusyuYlUqEuzJR2jFkQ-343" vertex="1">
          <mxGeometry x="600" width="60" height="38" as="geometry">
            <mxRectangle width="60" height="38" as="alternateBounds" />
          </mxGeometry>
        </mxCell>
        <mxCell id="5YusyuYlUqEuzJR2jFkQ-355" value="" style="shape=partialRectangle;html=1;whiteSpace=wrap;connectable=0;overflow=hidden;fillColor=none;top=0;left=0;bottom=0;right=0;pointerEvents=1;fontSize=20;" parent="5YusyuYlUqEuzJR2jFkQ-343" vertex="1">
          <mxGeometry x="660" width="60" height="38" as="geometry">
            <mxRectangle width="60" height="38" as="alternateBounds" />
          </mxGeometry>
        </mxCell>
      </root>
    </mxGraphModel>
  </diagram>
</mxfile>
